#!OML:ASF X:\für Bonn\!DataBase\2005_08_10_Bjorn_Final\c3d\bjorn.ASF
:FULLY-SPECIFIED
:DEGREES
35
root 3.50599 23.1827 -21.8138 6.43545 -3.74762 358.9
lowerback -11.4073 1.40721 3.46399
upperback 3.57412 1.27777 0.732705
thorax 10.345 0.806858 -0.905683
lowerneck 4.1141 -1.11558 -0.434038
upperneck 1.38911 -1.50419 -0.430342
head -0.247668 -0.750471 -0.0386829
rclavicle 1.24737e-014 -8.74653e-015
rhumerus -46.2143 3.95308 -89.863
rradius 118.239
rwrist -5.05992
rhand -23.5767 27.0082
rfingers 7.12502
rthumb 2.88615 -2.95202
lclavicle 1.24737e-014 -8.74653e-015
lhumerus -43.118 -24.5416 88.1198
lradius 104.911
lwrist -4.70909
lhand -48.195 -25.8533
lfingers 7.12502
lthumb -20.8558 3.04572
rfemur -10.4654 -7.91055 14.4769
rtibia 35.3258
rfoot 18.876 1.57518
rtoes -34.2156
lfemur -9.11544 4.71927 -15.2154
ltibia 35.5651
lfoot 23.6446 -3.06915
ltoes -22.3016
36
root 3.52022 23.3292 -21.6787 6.38931 -3.7515 358.973
lowerback -11.0981 1.34454 3.37618
upperback 3.70802 1.21548 0.757467
thorax 10.3047 0.771678 -0.846309
lowerneck 4.21203 -1.04505 -0.569505
upperneck 0.895427 -1.41897 -0.27186
head -0.412997 -0.707844 0.0326129
rclavicle 8.24956e-015 -6.36111e-015
rhumerus -46.2649 3.82959 -89.7104
rradius 118.029
rwrist -5.06378
rhand -23.763 27.5834
rfingers 7.12502
rthumb 2.70627 -2.37921
lclavicle 8.24956e-015 -6.36111e-015
lhumerus -42.722 -24.4516 87.7381
lradius 104.827
lwrist -4.3882
lhand -48.1712 -25.8922
lfingers 7.12502
lthumb -20.8329 3.00935
rfemur -10.9963 -8.24803 14.6112
rtibia 35.608
rfoot 17.9188 2.00714
rtoes -34.5448
lfemur -9.50176 5.2339 -15.3831
ltibia 35.6873
lfoot 23.146 -3.43518
ltoes -22.4791
37
root 3.53586 23.4652 -21.5452 6.30681 -3.78004 359.06
lowerback -10.711 1.28819 3.2909
upperback 3.85311 1.16485 0.771908
thorax 10.2315 0.742403 -0.798179
lowerneck 4.27708 -0.993414 -0.65973
upperneck 0.474742 -1.3563 -0.200671
head -0.552544 -0.675947 0.0701375
rclavicle 2.26118e-014 5.56597e-015
rhumerus -46.2874 3.68963 -89.5716
rradius 117.788
rwrist -5.09282
rhand -23.7553 27.6049
rfingers 7.12502
rthumb 2.71369 -2.3576
lclavicle 2.26118e-014 5.56597e-015
lhumerus -42.3888 -24.3435 87.4381
lradius 104.618
lwrist -3.95095
lhand -48.1322 -26.3479
lfingers 7.12502
lthumb -20.7954 2.55772
rfemur -11.4681 -8.56501 14.7121
rtibia 35.81
rfoot 17.0167 2.54266
rtoes -34.141
lfemur -9.90237 5.69728 -15.5795
ltibia 35.787
lfoot 22.412 -3.79487
ltoes -23.5503
38
root 3.55066 23.5898 -21.4146 6.13468 -3.78672 359.17
lowerback -10.177 1.22864 3.18591
upperback 4.00309 1.11922 0.775157
thorax 10.0763 0.713974 -0.752456
lowerneck 4.30852 -0.971987 -0.601142
upperneck 0.180212 -1.32805 -0.345156
head -0.650431 -0.659298 0.0175439
rclavicle -7.90169e-015 -3.57812e-015
rhumerus -46.3019 3.5184 -89.4361
rradius 117.626
rwrist -5.16883
rhand -23.6058 26.9925
rfingers 7.12502
rthumb 2.85811 -2.96812
lclavicle -7.90169e-015 -3.57812e-015
lhumerus -42.1696 -24.2853 87.2222
lradius 104.312
lwrist -3.45644
lhand -48.1575 -27.3415
lfingers 7.12502
lthumb -20.8197 1.56146
rfemur -11.825 -8.85806 14.7814
rtibia 35.9401
rfoot 16.1384 3.09772
rtoes -33.3766
lfemur -10.2556 6.14021 -15.7813
ltibia 35.8459
lfoot 21.5516 -4.20462
ltoes -24.865
39
root 3.5655 23.7061 -21.2855 5.91719 -3.81315 359.279
lowerback -9.57147 1.16436 3.06635
upperback 4.2067 1.06936 0.782141
thorax 9.93725 0.683058 -0.695235
lowerneck 4.10544 -0.963803 -0.40791
upperneck 0.0665197 -1.31085 -0.658394
head -0.655169 -0.647295 -0.110476
rclavicle 4.37326e-015 -1.51076e-014
rhumerus -46.1622 3.33473 -89.3374
rradius 117.302
rwrist -5.3112
rhand -23.4336 26.8632
rfingers 7.12502
rthumb 3.02441 -3.09505
lclavicle 4.37326e-015 -1.51076e-014
lhumerus -41.9219 -24.2213 87.0237
lradius 103.939
lwrist -2.85334
lhand -47.8267 -27.3417
lfingers 7.12502
lthumb -20.5019 1.59582
rfemur -12.1196 -9.09788 14.8349
rtibia 36.0221
rfoot 15.266 3.61148
rtoes -32.8125
lfemur -10.5757 6.55911 -15.9677
ltibia 35.8313
lfoot 20.9333 -4.4708
ltoes -26.3568
40
root 3.58088 23.8099 -21.1579 5.62143 -3.84987 359.364
lowerback -8.84604 1.11555 2.98618
upperback 4.42319 1.03787 0.790503
thorax 9.74264 0.663062 -0.656833
lowerneck 3.89392 -0.970637 -0.228699
upperneck 0.0119112 -1.31465 -0.968069
head -0.640429 -0.646318 -0.234956
rclavicle 5.86415e-015 -1.23246e-014
rhumerus -46.0232 3.13022 -89.2406
rradius 116.81
rwrist -5.53591
rhand -23.3138 26.8964
rfingers 7.12502
rthumb 3.1401 -3.06019
lclavicle 5.86415e-015 -1.23246e-014
lhumerus -41.7338 -24.1732 86.9002
lradius 103.511
lwrist -2.15025
lhand -47.1576 -26.8737
lfingers 7.12502
lthumb -19.8588 2.13168
rfemur -12.3258 -9.29485 14.8914
rtibia 36.0829
rfoot 14.2474 4.22603
rtoes -33.1312
lfemur -10.8125 6.95727 -16.1151
ltibia 35.7425
lfoot 20.3674 -4.58838
ltoes -26.5445
41
root 3.59701 23.8968 -21.0339 5.24271 -3.88548 359.427
lowerback -7.96953 1.06345 2.92594
upperback 4.65158 1.00273 0.811095
thorax 9.47131 0.641538 -0.619239
lowerneck 3.746 -0.984412 -0.0596224
upperneck -0.107022 -1.3298 -1.26906
head -0.656562 -0.650836 -0.354714
rclavicle 2.18663e-015 -3.97569e-016
rhumerus -45.9433 2.94115 -89.1667
rradius 116.317
rwrist -5.6802
rhand -23.1407 26.6316
rfingers 7.12502
rthumb 3.30719 -3.32245
lclavicle 2.18663e-015 -3.97569e-016
lhumerus -41.6099 -24.1137 86.8476
lradius 103.028
lwrist -1.75617
lhand -46.7784 -26.8559
lfingers 7.12502
lthumb -19.4942 2.1868
rfemur -12.4516 -9.44979 14.9413
rtibia 36.1275
rfoot 13.2273 4.91006
rtoes -33.5803
lfemur -10.9689 7.27126 -16.2093
ltibia 35.6037
lfoot 19.7312 -4.30997
ltoes -25.4161
42
root 3.613 23.9664 -20.9137 4.77499 -3.91185 359.51
lowerback -6.95164 0.996838 2.83485
upperback 4.89642 0.954563 0.841506
thorax 9.13281 0.610903 -0.557485
lowerneck 3.69314 -0.990456 -0.0261306
upperneck -0.318546 -1.3412 -1.44278
head -0.715269 -0.653842 -0.413106
rclavicle -2.10712e-014 -1.23246e-014
rhumerus -46.0111 2.79823 -89.0692
rradius 115.817
rwrist -5.9488
rhand -22.9836 26.7525
rfingers 7.12502
rthumb 3.45895 -3.1992
lclavicle -2.10712e-014 -1.23246e-014
lhumerus -41.5139 -24.011 86.8618
lradius 102.424
lwrist -1.65972
lhand -46.6491 -27.3261
lfingers 7.12502
lthumb -19.3699 1.72917
rfemur -12.4779 -9.50646 14.952
rtibia 36.1555
rfoot 12.2756 5.47321
rtoes -33.3745
lfemur -11.0459 7.54432 -16.294
ltibia 35.4485
lfoot 18.9794 -3.86024
ltoes -24.1187
